<svg width="30" height="28" viewBox="0 0 30 28" fill="none" xmlns="http://www.w3.org/2000/svg">
<g clip-path="url(#paint0_diamond_540_65_clip_path)" data-figma-skip-parse="true"><g transform="matrix(-0.0130261 -0.0173142 0.0560029 -0.042133 9.03742 26.2868)"><rect x="0" y="0" width="1242.73" height="469.324" fill="url(#paint0_diamond_540_65)" opacity="1" shape-rendering="crispEdges"/><rect x="0" y="0" width="1242.73" height="469.324" transform="scale(1 -1)" fill="url(#paint0_diamond_540_65)" opacity="1" shape-rendering="crispEdges"/><rect x="0" y="0" width="1242.73" height="469.324" transform="scale(-1 1)" fill="url(#paint0_diamond_540_65)" opacity="1" shape-rendering="crispEdges"/><rect x="0" y="0" width="1242.73" height="469.324" transform="scale(-1)" fill="url(#paint0_diamond_540_65)" opacity="1" shape-rendering="crispEdges"/></g></g><path d="M20.5028 0.31543C20.3986 0.31543 20.3024 0.371058 20.2504 0.461322L19.4438 1.86163L18.6465 3.2318C18.6455 3.23337 18.6467 3.23535 18.6485 3.23535V3.23535C18.6503 3.23535 18.6515 3.23732 18.6506 3.23889L14.2173 10.9357C14.1053 11.1302 13.8246 11.1302 13.7126 10.9357L12.7985 9.34865C12.7465 9.25838 12.6502 9.20276 12.5461 9.20276H9.52629C9.42213 9.20276 9.32589 9.25838 9.2739 9.34865L6.37098 14.3886C6.31915 14.4786 6.31915 14.5894 6.37098 14.6793L7.72672 17.0331C7.83876 17.2277 8.11946 17.2277 8.23151 17.0331L9.65492 14.5618C9.65864 14.5554 9.65864 14.5474 9.65492 14.541V14.541C9.6512 14.5345 9.6512 14.5266 9.65492 14.5201L10.7818 12.5637C10.8938 12.3691 11.1746 12.3691 11.2866 12.5637L13.7126 16.7755C13.8246 16.97 14.1053 16.97 14.2173 16.7755L21.9322 3.38124C21.9842 3.29098 22.0804 3.23535 22.1846 3.23535H24.324C24.5481 3.23535 24.6882 3.47782 24.5764 3.67199L14.2379 21.6213C14.1258 21.8158 13.8451 21.8158 13.7331 21.6213L11.5971 17.9128C11.485 17.7183 11.2043 17.7183 11.0923 17.9128L9.74658 20.2492C9.69475 20.3392 9.69475 20.4499 9.74658 20.5399L13.7331 27.4612C13.8451 27.6557 14.1258 27.6557 14.2379 27.4612L29.6218 0.752072C29.7337 0.557894 29.5935 0.31543 29.3695 0.31543L20.5028 0.31543Z" data-figma-gradient-fill="{&#34;type&#34;:&#34;GRADIENT_DIAMOND&#34;,&#34;stops&#34;:[{&#34;color&#34;:{&#34;r&#34;:0.73750001192092896,&#34;g&#34;:0.055312499403953552,&#34;b&#34;:0.54648756980895996,&#34;a&#34;:1.0},&#34;position&#34;:0.0},{&#34;color&#34;:{&#34;r&#34;:0.38945621252059937,&#34;g&#34;:0.041562501341104507,&#34;b&#34;:0.71249997615814209,&#34;a&#34;:1.0},&#34;position&#34;:0.52083331346511841},{&#34;color&#34;:{&#34;r&#34;:0.14392946660518646,&#34;g&#34;:0.28361001610755920,&#34;b&#34;:0.84646737575531006,&#34;a&#34;:1.0},&#34;position&#34;:0.81250},{&#34;color&#34;:{&#34;r&#34;:0.0,&#34;g&#34;:0.42549994587898254,&#34;b&#34;:0.92500001192092896,&#34;a&#34;:1.0},&#34;position&#34;:1.0},{&#34;color&#34;:{&#34;r&#34;:0.0,&#34;g&#34;:0.42549994587898254,&#34;b&#34;:0.92500001192092896,&#34;a&#34;:1.0},&#34;position&#34;:1.0}],&#34;stopsVar&#34;:[],&#34;transform&#34;:{&#34;m00&#34;:-26.052207946777344,&#34;m01&#34;:112.00572204589844,&#34;m02&#34;:-33.939338684082031,&#34;m10&#34;:-34.628440856933594,&#34;m11&#34;:-84.266029357910156,&#34;m12&#34;:85.733993530273438},&#34;opacity&#34;:1.0,&#34;blendMode&#34;:&#34;NORMAL&#34;,&#34;visible&#34;:true}"/>
<g clip-path="url(#paint1_diamond_540_65_clip_path)" data-figma-skip-parse="true"><g transform="matrix(-0.0130261 -0.0173142 0.0560029 -0.042133 9.03742 26.2868)"><rect x="0" y="0" width="1242.73" height="469.324" fill="url(#paint1_diamond_540_65)" opacity="1" shape-rendering="crispEdges"/><rect x="0" y="0" width="1242.73" height="469.324" transform="scale(1 -1)" fill="url(#paint1_diamond_540_65)" opacity="1" shape-rendering="crispEdges"/><rect x="0" y="0" width="1242.73" height="469.324" transform="scale(-1 1)" fill="url(#paint1_diamond_540_65)" opacity="1" shape-rendering="crispEdges"/><rect x="0" y="0" width="1242.73" height="469.324" transform="scale(-1)" fill="url(#paint1_diamond_540_65)" opacity="1" shape-rendering="crispEdges"/></g></g><path d="M4.35112 11.1725C4.46316 11.3671 4.74386 11.3671 4.8559 11.1725L6.17969 8.87422C6.23221 8.78305 6.23147 8.67064 6.17775 8.58016L5.07314 6.71947C4.95788 6.52532 5.0978 6.27952 5.3236 6.27952L14.1892 6.27953C14.2929 6.27953 14.3888 6.22439 14.4409 6.13476L15.8373 3.73524C15.9503 3.54107 15.8103 3.29748 15.5856 3.29748H0.317198C0.0932602 3.29748 -0.0469104 3.53965 0.0646393 3.73383L1.52564 6.27703C1.52653 6.27857 1.52817 6.27953 1.52995 6.27953V6.27953C1.53173 6.27953 1.53337 6.28048 1.53426 6.28202L4.35112 11.1725Z" data-figma-gradient-fill="{&#34;type&#34;:&#34;GRADIENT_DIAMOND&#34;,&#34;stops&#34;:[{&#34;color&#34;:{&#34;r&#34;:0.73750001192092896,&#34;g&#34;:0.055312499403953552,&#34;b&#34;:0.54648756980895996,&#34;a&#34;:1.0},&#34;position&#34;:0.0},{&#34;color&#34;:{&#34;r&#34;:0.38945621252059937,&#34;g&#34;:0.041562501341104507,&#34;b&#34;:0.71249997615814209,&#34;a&#34;:1.0},&#34;position&#34;:0.52083331346511841},{&#34;color&#34;:{&#34;r&#34;:0.14392946660518646,&#34;g&#34;:0.28361001610755920,&#34;b&#34;:0.84646737575531006,&#34;a&#34;:1.0},&#34;position&#34;:0.81250},{&#34;color&#34;:{&#34;r&#34;:0.0,&#34;g&#34;:0.42549994587898254,&#34;b&#34;:0.92500001192092896,&#34;a&#34;:1.0},&#34;position&#34;:1.0},{&#34;color&#34;:{&#34;r&#34;:0.0,&#34;g&#34;:0.42549994587898254,&#34;b&#34;:0.92500001192092896,&#34;a&#34;:1.0},&#34;position&#34;:1.0}],&#34;stopsVar&#34;:[],&#34;transform&#34;:{&#34;m00&#34;:-26.052207946777344,&#34;m01&#34;:112.00572204589844,&#34;m02&#34;:-33.939338684082031,&#34;m10&#34;:-34.628440856933594,&#34;m11&#34;:-84.266029357910156,&#34;m12&#34;:85.733993530273438},&#34;opacity&#34;:1.0,&#34;blendMode&#34;:&#34;NORMAL&#34;,&#34;visible&#34;:true}"/>
<defs>
<clipPath id="paint0_diamond_540_65_clip_path"><path d="M20.5028 0.31543C20.3986 0.31543 20.3024 0.371058 20.2504 0.461322L19.4438 1.86163L18.6465 3.2318C18.6455 3.23337 18.6467 3.23535 18.6485 3.23535V3.23535C18.6503 3.23535 18.6515 3.23732 18.6506 3.23889L14.2173 10.9357C14.1053 11.1302 13.8246 11.1302 13.7126 10.9357L12.7985 9.34865C12.7465 9.25838 12.6502 9.20276 12.5461 9.20276H9.52629C9.42213 9.20276 9.32589 9.25838 9.2739 9.34865L6.37098 14.3886C6.31915 14.4786 6.31915 14.5894 6.37098 14.6793L7.72672 17.0331C7.83876 17.2277 8.11946 17.2277 8.23151 17.0331L9.65492 14.5618C9.65864 14.5554 9.65864 14.5474 9.65492 14.541V14.541C9.6512 14.5345 9.6512 14.5266 9.65492 14.5201L10.7818 12.5637C10.8938 12.3691 11.1746 12.3691 11.2866 12.5637L13.7126 16.7755C13.8246 16.97 14.1053 16.97 14.2173 16.7755L21.9322 3.38124C21.9842 3.29098 22.0804 3.23535 22.1846 3.23535H24.324C24.5481 3.23535 24.6882 3.47782 24.5764 3.67199L14.2379 21.6213C14.1258 21.8158 13.8451 21.8158 13.7331 21.6213L11.5971 17.9128C11.485 17.7183 11.2043 17.7183 11.0923 17.9128L9.74658 20.2492C9.69475 20.3392 9.69475 20.4499 9.74658 20.5399L13.7331 27.4612C13.8451 27.6557 14.1258 27.6557 14.2379 27.4612L29.6218 0.752072C29.7337 0.557894 29.5935 0.31543 29.3695 0.31543L20.5028 0.31543Z"/></clipPath><clipPath id="paint1_diamond_540_65_clip_path"><path d="M4.35112 11.1725C4.46316 11.3671 4.74386 11.3671 4.8559 11.1725L6.17969 8.87422C6.23221 8.78305 6.23147 8.67064 6.17775 8.58016L5.07314 6.71947C4.95788 6.52532 5.0978 6.27952 5.3236 6.27952L14.1892 6.27953C14.2929 6.27953 14.3888 6.22439 14.4409 6.13476L15.8373 3.73524C15.9503 3.54107 15.8103 3.29748 15.5856 3.29748H0.317198C0.0932602 3.29748 -0.0469104 3.53965 0.0646393 3.73383L1.52564 6.27703C1.52653 6.27857 1.52817 6.27953 1.52995 6.27953V6.27953C1.53173 6.27953 1.53337 6.28048 1.53426 6.28202L4.35112 11.1725Z"/></clipPath><linearGradient id="paint0_diamond_540_65" x1="0" y1="0" x2="500" y2="500" gradientUnits="userSpaceOnUse">
<stop stop-color="#BC0E8B"/>
<stop offset="0.520833" stop-color="#630BB6"/>
<stop offset="0.8125" stop-color="#2548D8"/>
<stop offset="1" stop-color="#006DEC"/>
<stop offset="1" stop-color="#006DEC"/>
</linearGradient>
<linearGradient id="paint1_diamond_540_65" x1="0" y1="0" x2="500" y2="500" gradientUnits="userSpaceOnUse">
<stop stop-color="#BC0E8B"/>
<stop offset="0.520833" stop-color="#630BB6"/>
<stop offset="0.8125" stop-color="#2548D8"/>
<stop offset="1" stop-color="#006DEC"/>
<stop offset="1" stop-color="#006DEC"/>
</linearGradient>
</defs>
</svg>
