<svg width="149" height="40" viewBox="0 0 149 40" fill="none" xmlns="http://www.w3.org/2000/svg">
<path d="M148.63 14.9873C148.63 15.1428 148.504 15.2689 148.349 15.2689H143.761C143.605 15.2689 143.479 15.3949 143.479 15.5505V27.6941C143.479 27.8496 143.353 27.9757 143.198 27.9757H140.283C140.128 27.9757 140.002 27.8496 140.002 27.6941V15.5505C140.002 15.3949 139.876 15.2689 139.72 15.2689H135.239C135.084 15.2689 134.958 15.1428 134.958 14.9873V12.9962C134.958 12.8407 135.084 12.7146 135.239 12.7146H148.349C148.504 12.7146 148.63 12.8407 148.63 12.9962V14.9873Z" fill="#363847"/>
<path d="M130.3 21.0831C130.3 21.2386 130.174 21.3647 130.018 21.3647H123.949C123.793 21.3647 123.667 21.4908 123.667 21.6463V25.1613C123.667 25.3168 123.793 25.4429 123.949 25.4429H131.177C131.333 25.4429 131.459 25.569 131.459 25.7245V27.6941C131.459 27.8496 131.333 27.9757 131.177 27.9757H120.472C120.316 27.9757 120.19 27.8496 120.19 27.6941V12.9962C120.19 12.8407 120.316 12.7146 120.472 12.7146H131.156C131.311 12.7146 131.437 12.8407 131.437 12.9962V14.9873C131.437 15.1428 131.311 15.2689 131.156 15.2689H123.949C123.793 15.2689 123.667 15.3949 123.667 15.5505V18.6147C123.667 18.7703 123.793 18.8963 123.949 18.8963H130.018C130.174 18.8963 130.3 19.0224 130.3 19.1779V21.0831Z" fill="#363847"/>
<path d="M115.916 27.6941C115.916 27.8496 115.79 27.9757 115.634 27.9757H112.589C112.495 27.9757 112.407 27.9288 112.355 27.8506L106.236 18.7014C106.081 18.47 105.72 18.5796 105.72 18.858V27.6941C105.72 27.8496 105.594 27.9757 105.439 27.9757H102.525C102.369 27.9757 102.243 27.8496 102.243 27.6941V12.9962C102.243 12.8407 102.369 12.7146 102.525 12.7146H105.57C105.664 12.7146 105.752 12.7615 105.804 12.8396L111.945 22.0113C112.099 22.2425 112.46 22.1329 112.46 21.8546V12.9962C112.46 12.8407 112.586 12.7146 112.742 12.7146H115.634C115.79 12.7146 115.916 12.8407 115.916 12.9962V27.6941Z" fill="#363847"/>
<path d="M92.1365 25.7005C93.5746 25.7005 94.7551 25.2283 94.7551 23.9619C94.7551 22.8672 94.0253 22.4808 93.1238 22.116C92.6945 21.9442 92.1579 21.7725 91.4711 21.5794C89.3461 20.9569 87.2856 20.1627 86.3197 18.51C86.0192 18.0163 85.8689 17.4368 85.8689 16.7714C85.8689 14.5391 87.6075 13.3586 89.5608 12.822C90.312 12.6073 91.1276 12.5 92.0506 12.5C94.8624 12.5 96.9015 13.5947 97.7815 15.3333C98.0405 15.8326 98.1719 16.3638 98.2033 16.9406C98.2118 17.0959 98.0847 17.2221 97.9292 17.2221H95.0581C94.9026 17.2221 94.7784 17.0955 94.7623 16.9408C94.628 15.6486 93.5508 15.0113 91.9862 15.0113C90.5266 15.0113 89.3246 15.505 89.3246 16.7928C89.3246 17.2865 89.6037 17.7158 90.1618 18.0592C90.7198 18.4027 91.5569 18.7032 92.6516 19.0037C94.9053 19.6261 97.0088 20.4632 97.8674 22.2662C98.1035 22.7599 98.2323 23.318 98.2323 23.9404C98.2323 26.1942 96.6225 27.3747 94.6478 27.8898C93.8965 28.083 93.0594 28.1903 92.1365 28.1903C88.8954 28.1903 86.4699 26.9239 85.6328 24.7346C85.4894 24.3402 85.3909 23.9159 85.3623 23.4491C85.3528 23.2939 85.4798 23.1677 85.6354 23.1677H88.5494C88.7049 23.1677 88.8296 23.2947 88.8416 23.4497C88.9686 25.084 90.2251 25.7005 92.1365 25.7005Z" fill="#363847"/>
<path d="M81.5853 27.6941C81.5853 27.8496 81.4592 27.9757 81.3037 27.9757H78.4111C78.2556 27.9757 78.1296 27.8496 78.1296 27.6941V12.9962C78.1296 12.8407 78.2556 12.7146 78.4111 12.7146H81.3037C81.4592 12.7146 81.5853 12.8407 81.5853 12.9962V27.6941Z" fill="#363847"/>
<path d="M66.6398 23.3872C66.7246 23.6451 67.0893 23.6454 67.1746 23.3877L70.6417 12.9078C70.6799 12.7925 70.7876 12.7146 70.9091 12.7146H74.16C74.3574 12.7146 74.4935 12.9125 74.423 13.0968L68.8002 27.7947C68.7585 27.9037 68.6539 27.9757 68.5372 27.9757H65.3187C65.202 27.9757 65.0974 27.9037 65.0557 27.7947L59.4329 13.0968C59.3624 12.9125 59.4985 12.7146 59.6959 12.7146H62.925C63.0466 12.7146 63.1545 12.7927 63.1925 12.9082L66.6398 23.3872Z" fill="#363847"/>
<path d="M145.198 35.6475V31.5527H147.895V32.1903H145.988V33.2608H147.719V33.875H145.988V35.0098H147.895V35.6475H145.198Z" fill="#363847"/>
<path d="M133.402 35.6475V31.5527H134.625C135.096 31.5527 135.486 31.6384 135.795 31.81C136.103 31.9777 136.331 32.2156 136.479 32.5237C136.631 32.8279 136.707 33.1867 136.707 33.6001C136.707 34.0134 136.631 34.3742 136.479 34.6823C136.331 34.9864 136.103 35.2243 135.795 35.3959C135.486 35.5636 135.096 35.6475 134.625 35.6475H133.402ZM134.192 34.9689H134.584C134.915 34.9689 135.176 34.9143 135.368 34.8051C135.559 34.6959 135.695 34.5399 135.777 34.3371C135.859 34.1304 135.9 33.8847 135.9 33.6001C135.9 33.3115 135.859 33.0658 135.777 32.863C135.695 32.6563 135.559 32.4984 135.368 32.3892C135.176 32.28 134.915 32.2254 134.584 32.2254H134.192V34.9689Z" fill="#363847"/>
<path d="M122.973 35.7177C122.595 35.7177 122.259 35.628 121.967 35.4486C121.678 35.2692 121.45 35.0215 121.282 34.7057C121.119 34.3859 121.037 34.0173 121.037 33.6001C121.037 33.1828 121.119 32.8162 121.282 32.5003C121.45 32.1805 121.678 31.9309 121.967 31.7515C122.259 31.5722 122.595 31.4825 122.973 31.4825C123.359 31.4825 123.696 31.5722 123.985 31.7515C124.278 31.9309 124.504 32.1805 124.664 32.5003C124.827 32.8162 124.909 33.1828 124.909 33.6001C124.909 34.0173 124.827 34.3859 124.664 34.7057C124.504 35.0215 124.278 35.2692 123.985 35.4486C123.696 35.628 123.359 35.7177 122.973 35.7177ZM122.973 35.0098C123.207 35.0098 123.408 34.9533 123.576 34.8402C123.743 34.7232 123.872 34.5594 123.962 34.3488C124.055 34.1382 124.102 33.8886 124.102 33.6001C124.102 33.3076 124.055 33.058 123.962 32.8513C123.872 32.6407 123.743 32.4789 123.576 32.3658C123.408 32.2527 123.207 32.1961 122.973 32.1961C122.747 32.1961 122.548 32.2527 122.376 32.3658C122.209 32.4789 122.078 32.6407 121.984 32.8513C121.891 33.058 121.844 33.3076 121.844 33.6001C121.844 33.8886 121.891 34.1382 121.984 34.3488C122.078 34.5594 122.209 34.7232 122.376 34.8402C122.548 34.9533 122.747 35.0098 122.973 35.0098Z" fill="#363847"/>
<path d="M110.903 35.7177C110.505 35.7177 110.162 35.6299 109.873 35.4544C109.584 35.275 109.362 35.0274 109.206 34.7115C109.05 34.3917 108.972 34.0232 108.972 33.6059C108.972 33.1886 109.05 32.8201 109.206 32.5003C109.362 32.1805 109.584 31.9309 109.873 31.7515C110.162 31.5722 110.505 31.4825 110.903 31.4825C111.394 31.4825 111.796 31.6053 112.108 31.851C112.42 32.0967 112.613 32.4438 112.687 32.8922H111.839C111.784 32.6739 111.677 32.5042 111.517 32.3833C111.357 32.2585 111.15 32.1961 110.897 32.1961C110.663 32.1961 110.462 32.2546 110.294 32.3716C110.127 32.4847 109.998 32.6466 109.908 32.8571C109.822 33.0638 109.779 33.3134 109.779 33.6059C109.779 33.8945 109.822 34.1441 109.908 34.3547C109.998 34.5653 110.127 34.7271 110.294 34.8402C110.462 34.9533 110.663 35.0098 110.897 35.0098C111.15 35.0098 111.357 34.9533 111.517 34.8402C111.677 34.7232 111.784 34.5614 111.839 34.3547H112.687C112.613 34.7798 112.42 35.1132 112.108 35.355C111.796 35.5968 111.394 35.7177 110.903 35.7177Z" fill="#363847"/>
<g clip-path="url(#paint0_diamond_522_164_clip_path)" data-figma-skip-parse="true"><g transform="matrix(-0.0184172 -0.02448 0.0791806 -0.0595705 13.0407 37.22)"><rect x="0" y="0" width="2749.36" height="1325.23" fill="url(#paint0_diamond_522_164)" opacity="1" shape-rendering="crispEdges"/><rect x="0" y="0" width="2749.36" height="1325.23" transform="scale(1 -1)" fill="url(#paint0_diamond_522_164)" opacity="1" shape-rendering="crispEdges"/><rect x="0" y="0" width="2749.36" height="1325.23" transform="scale(-1 1)" fill="url(#paint0_diamond_522_164)" opacity="1" shape-rendering="crispEdges"/><rect x="0" y="0" width="2749.36" height="1325.23" transform="scale(-1)" fill="url(#paint0_diamond_522_164)" opacity="1" shape-rendering="crispEdges"/></g></g><path d="M29.0132 0.5L27.754 2.68612L26.6237 4.62838H26.6353L20.0076 16.1352L18.2395 13.0655H13.4939L9.15235 20.6031L11.5444 24.7562L13.9223 20.6278L13.9053 20.5983L15.8639 17.1978L20.0076 24.3919L31.3911 4.62838H35.3663L20.0366 31.2432L16.3029 24.7608L13.925 28.8892L20.0366 39.5L42.5 0.500001L29.0132 0.5Z" data-figma-gradient-fill="{&#34;type&#34;:&#34;GRADIENT_DIAMOND&#34;,&#34;stops&#34;:[{&#34;color&#34;:{&#34;r&#34;:0.57083332538604736,&#34;g&#34;:0.064218752086162567,&#34;b&#34;:0.42898130416870117,&#34;a&#34;:1.0},&#34;position&#34;:0.0},{&#34;color&#34;:{&#34;r&#34;:0.30275478959083557,&#34;g&#34;:0.076875001192092896,&#34;b&#34;:0.51249998807907104,&#34;a&#34;:1.0},&#34;position&#34;:0.52083331346511841},{&#34;color&#34;:{&#34;r&#34;:0.14392946660518646,&#34;g&#34;:0.28361001610755920,&#34;b&#34;:0.84646737575531006,&#34;a&#34;:1.0},&#34;position&#34;:0.81250},{&#34;color&#34;:{&#34;r&#34;:0.0041666668839752674,&#34;g&#34;:0.28299999237060547,&#34;b&#34;:1.0,&#34;a&#34;:1.0},&#34;position&#34;:1.0}],&#34;stopsVar&#34;:[{&#34;color&#34;:{&#34;r&#34;:0.57083332538604736,&#34;g&#34;:0.064218752086162567,&#34;b&#34;:0.42898130416870117,&#34;a&#34;:1.0},&#34;position&#34;:0.0},{&#34;color&#34;:{&#34;r&#34;:0.30275478959083557,&#34;g&#34;:0.076875001192092896,&#34;b&#34;:0.51249998807907104,&#34;a&#34;:1.0},&#34;position&#34;:0.52083331346511841},{&#34;color&#34;:{&#34;r&#34;:0.14392946660518646,&#34;g&#34;:0.28361001610755920,&#34;b&#34;:0.84646737575531006,&#34;a&#34;:1.0},&#34;position&#34;:0.81250},{&#34;color&#34;:{&#34;r&#34;:0.0041666668839752674,&#34;g&#34;:0.28299999237060547,&#34;b&#34;:1.0,&#34;a&#34;:1.0},&#34;position&#34;:1.0}],&#34;transform&#34;:{&#34;m00&#34;:-36.834354400634766,&#34;m01&#34;:158.36119079589844,&#34;m02&#34;:-47.722675323486328,&#34;m10&#34;:-48.960010528564453,&#34;m11&#34;:-119.14094543457031,&#34;m12&#34;:121.27047729492188},&#34;opacity&#34;:1.0,&#34;blendMode&#34;:&#34;NORMAL&#34;,&#34;visible&#34;:true}"/>
<g clip-path="url(#paint1_diamond_522_164_clip_path)" data-figma-skip-parse="true"><g transform="matrix(-0.0184172 -0.02448 0.0791806 -0.0595705 13.0407 37.22)"><rect x="0" y="0" width="2749.36" height="1325.23" fill="url(#paint1_diamond_522_164)" opacity="1" shape-rendering="crispEdges"/><rect x="0" y="0" width="2749.36" height="1325.23" transform="scale(1 -1)" fill="url(#paint1_diamond_522_164)" opacity="1" shape-rendering="crispEdges"/><rect x="0" y="0" width="2749.36" height="1325.23" transform="scale(-1 1)" fill="url(#paint1_diamond_522_164)" opacity="1" shape-rendering="crispEdges"/><rect x="0" y="0" width="2749.36" height="1325.23" transform="scale(-1)" fill="url(#paint1_diamond_522_164)" opacity="1" shape-rendering="crispEdges"/></g></g><path d="M6.77178 16.4701L9.12049 12.3923L7.06649 8.93243L20.5615 8.93244L23.0151 4.71622H0L2.42211 8.93244H2.43024L6.77178 16.4701Z" data-figma-gradient-fill="{&#34;type&#34;:&#34;GRADIENT_DIAMOND&#34;,&#34;stops&#34;:[{&#34;color&#34;:{&#34;r&#34;:0.57083332538604736,&#34;g&#34;:0.064218752086162567,&#34;b&#34;:0.42898130416870117,&#34;a&#34;:1.0},&#34;position&#34;:0.0},{&#34;color&#34;:{&#34;r&#34;:0.30275478959083557,&#34;g&#34;:0.076875001192092896,&#34;b&#34;:0.51249998807907104,&#34;a&#34;:1.0},&#34;position&#34;:0.52083331346511841},{&#34;color&#34;:{&#34;r&#34;:0.14392946660518646,&#34;g&#34;:0.28361001610755920,&#34;b&#34;:0.84646737575531006,&#34;a&#34;:1.0},&#34;position&#34;:0.81250},{&#34;color&#34;:{&#34;r&#34;:0.0041666668839752674,&#34;g&#34;:0.28299999237060547,&#34;b&#34;:1.0,&#34;a&#34;:1.0},&#34;position&#34;:1.0}],&#34;stopsVar&#34;:[{&#34;color&#34;:{&#34;r&#34;:0.57083332538604736,&#34;g&#34;:0.064218752086162567,&#34;b&#34;:0.42898130416870117,&#34;a&#34;:1.0},&#34;position&#34;:0.0},{&#34;color&#34;:{&#34;r&#34;:0.30275478959083557,&#34;g&#34;:0.076875001192092896,&#34;b&#34;:0.51249998807907104,&#34;a&#34;:1.0},&#34;position&#34;:0.52083331346511841},{&#34;color&#34;:{&#34;r&#34;:0.14392946660518646,&#34;g&#34;:0.28361001610755920,&#34;b&#34;:0.84646737575531006,&#34;a&#34;:1.0},&#34;position&#34;:0.81250},{&#34;color&#34;:{&#34;r&#34;:0.0041666668839752674,&#34;g&#34;:0.28299999237060547,&#34;b&#34;:1.0,&#34;a&#34;:1.0},&#34;position&#34;:1.0}],&#34;transform&#34;:{&#34;m00&#34;:-36.834354400634766,&#34;m01&#34;:158.36119079589844,&#34;m02&#34;:-47.722675323486328,&#34;m10&#34;:-48.960010528564453,&#34;m11&#34;:-119.14094543457031,&#34;m12&#34;:121.27047729492188},&#34;opacity&#34;:1.0,&#34;blendMode&#34;:&#34;NORMAL&#34;,&#34;visible&#34;:true}"/>
<defs>
<clipPath id="paint0_diamond_522_164_clip_path"><path d="M29.0132 0.5L27.754 2.68612L26.6237 4.62838H26.6353L20.0076 16.1352L18.2395 13.0655H13.4939L9.15235 20.6031L11.5444 24.7562L13.9223 20.6278L13.9053 20.5983L15.8639 17.1978L20.0076 24.3919L31.3911 4.62838H35.3663L20.0366 31.2432L16.3029 24.7608L13.925 28.8892L20.0366 39.5L42.5 0.500001L29.0132 0.5Z"/></clipPath><clipPath id="paint1_diamond_522_164_clip_path"><path d="M6.77178 16.4701L9.12049 12.3923L7.06649 8.93243L20.5615 8.93244L23.0151 4.71622H0L2.42211 8.93244H2.43024L6.77178 16.4701Z"/></clipPath><linearGradient id="paint0_diamond_522_164" x1="0" y1="0" x2="500" y2="500" gradientUnits="userSpaceOnUse">
<stop stop-color="#92106D"/>
<stop offset="0.520833" stop-color="#4D1483"/>
<stop offset="0.8125" stop-color="#2548D8"/>
<stop offset="1" stop-color="#0148FF"/>
</linearGradient>
<linearGradient id="paint1_diamond_522_164" x1="0" y1="0" x2="500" y2="500" gradientUnits="userSpaceOnUse">
<stop stop-color="#92106D"/>
<stop offset="0.520833" stop-color="#4D1483"/>
<stop offset="0.8125" stop-color="#2548D8"/>
<stop offset="1" stop-color="#0148FF"/>
</linearGradient>
</defs>
</svg>
