<svg width="132" height="35" viewBox="0 0 132 35" fill="none" xmlns="http://www.w3.org/2000/svg">
<path d="M131.589 14.62C131.589 14.7573 131.478 14.8687 131.34 14.8687H127.287C127.15 14.8687 127.039 14.9801 127.039 15.1174V25.8443C127.039 25.9817 126.927 26.093 126.79 26.093H124.216C124.079 26.093 123.967 25.9817 123.967 25.8443V15.1174C123.967 14.9801 123.856 14.8687 123.718 14.8687H119.76C119.623 14.8687 119.512 14.7573 119.512 14.62V12.8612C119.512 12.7238 119.623 12.6125 119.76 12.6125H131.34C131.478 12.6125 131.589 12.7238 131.589 12.8612V14.62Z" fill="#F2F2F5"/>
<path d="M115.397 20.0046C115.397 20.142 115.286 20.2533 115.148 20.2533H109.787C109.65 20.2533 109.538 20.3647 109.538 20.5021V23.607C109.538 23.7444 109.65 23.8558 109.787 23.8558H116.172C116.309 23.8558 116.421 23.9671 116.421 24.1045V25.8443C116.421 25.9817 116.309 26.093 116.172 26.093H106.715C106.578 26.093 106.467 25.9817 106.467 25.8443V12.8612C106.467 12.7238 106.578 12.6125 106.715 12.6125H116.153C116.29 12.6125 116.402 12.7238 116.402 12.8612V14.62C116.402 14.7573 116.29 14.8687 116.153 14.8687H109.787C109.65 14.8687 109.538 14.9801 109.538 15.1174V17.8242C109.538 17.9616 109.65 18.0729 109.787 18.0729H115.148C115.286 18.0729 115.397 18.1843 115.397 18.3217V20.0046Z" fill="#F2F2F5"/>
<path d="M102.691 25.8443C102.691 25.9817 102.58 26.093 102.442 26.093H99.7526C99.6695 26.093 99.592 26.0516 99.5458 25.9826L94.1407 17.9008C94.004 17.6964 93.6852 17.7932 93.6852 18.0391V25.8443C93.6852 25.9817 93.5738 26.093 93.4365 26.093H90.8624C90.725 26.093 90.6137 25.9817 90.6137 25.8443V12.8612C90.6137 12.7238 90.725 12.6125 90.8624 12.6125H93.5524C93.6354 12.6125 93.7129 12.6538 93.7591 12.7228L99.1832 20.8245C99.32 21.0288 99.6386 20.932 99.6386 20.6861V12.8612C99.6386 12.7238 99.75 12.6125 99.8874 12.6125H102.442C102.58 12.6125 102.691 12.7238 102.691 12.8612V25.8443Z" fill="#F2F2F5"/>
<path d="M81.686 24.0833C82.9564 24.0833 83.9991 23.6662 83.9991 22.5475C83.9991 21.5805 83.3545 21.2393 82.5582 20.9169C82.179 20.7653 81.705 20.6136 81.0983 20.4429C79.2212 19.8931 77.4011 19.1916 76.5479 17.7317C76.2824 17.2956 76.1497 16.7837 76.1497 16.1959C76.1497 14.2241 77.6855 13.1813 79.4108 12.7073C80.0744 12.5177 80.7949 12.4229 81.6102 12.4229C84.094 12.4229 85.8952 13.3898 86.6725 14.9256C86.9012 15.3667 87.0173 15.8359 87.0451 16.3454C87.0525 16.4826 86.9404 16.5941 86.803 16.5941H84.2668C84.1295 16.5941 84.0198 16.4822 84.0056 16.3456C83.8869 15.2042 82.9354 14.6412 81.5533 14.6412C80.264 14.6412 79.2023 15.0773 79.2023 16.2149C79.2023 16.6509 79.4487 17.0301 79.9417 17.3335C80.4347 17.6369 81.1741 17.9023 82.1411 18.1677C84.1319 18.7176 85.99 19.457 86.7484 21.0497C86.9569 21.4857 87.0707 21.9787 87.0707 22.5286C87.0707 24.5194 85.6487 25.5622 83.9044 26.0172C83.2407 26.1878 82.5013 26.2826 81.686 26.2826C78.8231 26.2826 76.6806 25.164 75.9411 23.2301C75.8145 22.8817 75.7275 22.5069 75.7022 22.0946C75.6938 21.9575 75.806 21.846 75.9434 21.846H78.5175C78.6548 21.846 78.7649 21.9581 78.7756 22.0951C78.8878 23.5388 79.9976 24.0833 81.686 24.0833Z" fill="#F2F2F5"/>
<path d="M72.3658 25.8443C72.3658 25.9817 72.2545 26.093 72.1171 26.093H69.562C69.4246 26.093 69.3133 25.9817 69.3133 25.8443V12.8612C69.3133 12.7238 69.4246 12.6125 69.562 12.6125H72.1171C72.2545 12.6125 72.3658 12.7238 72.3658 12.8612V25.8443Z" fill="#F2F2F5"/>
<path d="M59.1639 22.0399C59.2389 22.2677 59.561 22.268 59.6364 22.0403L62.699 12.7831C62.7327 12.6812 62.8279 12.6125 62.9352 12.6125H65.8068C65.9812 12.6125 66.1014 12.7872 66.0391 12.9501L61.0723 25.9332C61.0355 26.0295 60.9431 26.093 60.84 26.093H57.997C57.8939 26.093 57.8015 26.0295 57.7647 25.9332L52.7979 12.9501C52.7356 12.7872 52.8558 12.6125 53.0302 12.6125H55.8826C55.99 12.6125 56.0853 12.6814 56.1188 12.7835L59.1639 22.0399Z" fill="#F2F2F5"/>
<path d="M98.2657 33.3989C97.9143 33.3989 97.6112 33.3214 97.3563 33.1664C97.1014 33.0079 96.905 32.7892 96.7672 32.5102C96.6294 32.2277 96.5605 31.9021 96.5605 31.5335C96.5605 31.1649 96.6294 30.8394 96.7672 30.5569C96.905 30.2745 97.1014 30.054 97.3563 29.8955C97.6112 29.7371 97.9143 29.6578 98.2657 29.6578C98.6998 29.6578 99.0546 29.7663 99.3302 29.9834C99.6058 30.2004 99.7763 30.507 99.8417 30.9031H99.0925C99.0443 30.7102 98.9495 30.5604 98.8083 30.4536C98.667 30.3434 98.4845 30.2882 98.2606 30.2882C98.0539 30.2882 97.8765 30.3399 97.7283 30.4433C97.5802 30.5432 97.4665 30.6861 97.3873 30.8721C97.3115 31.0547 97.2736 31.2752 97.2736 31.5335C97.2736 31.7885 97.3115 32.0089 97.3873 32.195C97.4665 32.381 97.5802 32.5239 97.7283 32.6238C97.8765 32.7237 98.0539 32.7737 98.2606 32.7737C98.4845 32.7737 98.667 32.7237 98.8083 32.6238C98.9495 32.5205 99.0443 32.3775 99.0925 32.195H99.8417C99.7763 32.5704 99.6058 32.865 99.3302 33.0786C99.0546 33.2921 98.6998 33.3989 98.2657 33.3989ZM108.928 33.3989C108.594 33.3989 108.298 33.3197 108.039 33.1612C107.784 33.0028 107.583 32.784 107.435 32.505C107.29 32.2225 107.218 31.897 107.218 31.5284C107.218 31.1598 107.29 30.836 107.435 30.5569C107.583 30.2745 107.784 30.054 108.039 29.8955C108.298 29.7371 108.594 29.6578 108.928 29.6578C109.269 29.6578 109.567 29.7371 109.822 29.8955C110.08 30.054 110.28 30.2745 110.421 30.5569C110.566 30.836 110.638 31.1598 110.638 31.5284C110.638 31.897 110.566 32.2225 110.421 32.505C110.28 32.784 110.08 33.0028 109.822 33.1612C109.567 33.3197 109.269 33.3989 108.928 33.3989ZM108.928 32.7737C109.135 32.7737 109.312 32.7237 109.46 32.6238C109.608 32.5205 109.722 32.3758 109.801 32.1898C109.884 32.0038 109.925 31.7833 109.925 31.5284C109.925 31.27 109.884 31.0495 109.801 30.867C109.722 30.6809 109.608 30.538 109.46 30.4381C109.312 30.3382 109.135 30.2882 108.928 30.2882C108.728 30.2882 108.552 30.3382 108.401 30.4381C108.253 30.538 108.137 30.6809 108.055 30.867C107.972 31.0495 107.931 31.27 107.931 31.5284C107.931 31.7833 107.972 32.0038 108.055 32.1898C108.137 32.3758 108.253 32.5205 108.401 32.6238C108.552 32.7237 108.728 32.7737 108.928 32.7737ZM118.14 33.3369V29.7198H119.22C119.637 29.7198 119.981 29.7956 120.254 29.9472C120.526 30.0953 120.727 30.3055 120.858 30.5776C120.993 30.8463 121.06 31.1632 121.06 31.5284C121.06 31.8935 120.993 32.2122 120.858 32.4843C120.727 32.753 120.526 32.9631 120.254 33.1147C119.981 33.2629 119.637 33.3369 119.22 33.3369H118.14ZM118.838 32.7375H119.184C119.477 32.7375 119.708 32.6893 119.876 32.5928C120.045 32.4964 120.166 32.3586 120.238 32.1794C120.31 31.9969 120.347 31.7798 120.347 31.5284C120.347 31.2735 120.31 31.0564 120.238 30.8773C120.166 30.6947 120.045 30.5552 119.876 30.4588C119.708 30.3623 119.477 30.3141 119.184 30.3141H118.838V32.7375ZM128.56 33.3369V29.7198H130.942V30.2831H129.258V31.2287H130.787V31.7712H129.258V32.7737H130.942V33.3369H128.56Z" fill="#F2F2F5"/>
<g clip-path="url(#paint0_diamond_601_9_clip_path)" data-figma-skip-parse="true"><g transform="matrix(-0.0162685 -0.021624 0.0699429 -0.0526206 11.8201 32.934)"><rect x="0" y="0" width="1242.73" height="469.324" fill="url(#paint0_diamond_601_9)" opacity="1" shape-rendering="crispEdges"/><rect x="0" y="0" width="1242.73" height="469.324" transform="scale(1 -1)" fill="url(#paint0_diamond_601_9)" opacity="1" shape-rendering="crispEdges"/><rect x="0" y="0" width="1242.73" height="469.324" transform="scale(-1 1)" fill="url(#paint0_diamond_601_9)" opacity="1" shape-rendering="crispEdges"/><rect x="0" y="0" width="1242.73" height="469.324" transform="scale(-1)" fill="url(#paint0_diamond_601_9)" opacity="1" shape-rendering="crispEdges"/></g></g><path d="M26.1394 0.498047C26.0093 0.498047 25.8891 0.567522 25.8242 0.680254L24.8168 2.42912L23.821 4.14035C23.8198 4.14231 23.8213 4.14478 23.8235 4.14478C23.8258 4.14478 23.8272 4.14724 23.8261 4.14921L18.2894 13.7618C18.1495 14.0048 17.7989 14.0048 17.659 13.7618L16.5173 11.7798C16.4524 11.667 16.3322 11.5976 16.2021 11.5976H12.4307C12.3006 11.5976 12.1804 11.667 12.1154 11.7798L8.48994 18.0742C8.42521 18.1866 8.42521 18.325 8.48994 18.4374L10.1831 21.377C10.3231 21.62 10.6737 21.62 10.8136 21.377L12.5913 18.2906C12.596 18.2826 12.596 18.2726 12.5913 18.2646C12.5867 18.2565 12.5867 18.2466 12.5913 18.2385L13.9987 15.795C14.1386 15.5521 14.4892 15.5521 14.6291 15.795L17.659 21.0553C17.7989 21.2983 18.1495 21.2983 18.2894 21.0553L27.9246 4.32699C27.9895 4.21426 28.1097 4.14478 28.2398 4.14478H30.9117C31.1916 4.14478 31.3666 4.4476 31.2269 4.69011L18.315 27.1073C18.1751 27.3503 17.8245 27.3503 17.6846 27.1073L15.0169 22.4757C14.8769 22.2328 14.5264 22.2328 14.3864 22.4757L12.7058 25.3936C12.641 25.506 12.641 25.6444 12.7058 25.7567L17.6846 34.4008C17.8245 34.6437 18.1751 34.6437 18.315 34.4008L37.5283 1.04338C37.668 0.800865 37.493 0.498048 37.2131 0.498048L26.1394 0.498047Z" data-figma-gradient-fill="{&#34;type&#34;:&#34;GRADIENT_DIAMOND&#34;,&#34;stops&#34;:[{&#34;color&#34;:{&#34;r&#34;:0.73750001192092896,&#34;g&#34;:0.055312499403953552,&#34;b&#34;:0.54648756980895996,&#34;a&#34;:1.0},&#34;position&#34;:0.0},{&#34;color&#34;:{&#34;r&#34;:0.38945621252059937,&#34;g&#34;:0.041562501341104507,&#34;b&#34;:0.71249997615814209,&#34;a&#34;:1.0},&#34;position&#34;:0.52083331346511841},{&#34;color&#34;:{&#34;r&#34;:0.14392946660518646,&#34;g&#34;:0.28361001610755920,&#34;b&#34;:0.84646737575531006,&#34;a&#34;:1.0},&#34;position&#34;:0.81250},{&#34;color&#34;:{&#34;r&#34;:0.0,&#34;g&#34;:0.42549994587898254,&#34;b&#34;:0.92500001192092896,&#34;a&#34;:1.0},&#34;position&#34;:1.0},{&#34;color&#34;:{&#34;r&#34;:0.0,&#34;g&#34;:0.42549994587898254,&#34;b&#34;:0.92500001192092896,&#34;a&#34;:1.0},&#34;position&#34;:1.0}],&#34;stopsVar&#34;:[],&#34;transform&#34;:{&#34;m00&#34;:-32.537014007568359,&#34;m01&#34;:139.88572692871094,&#34;m02&#34;:-41.854251861572266,&#34;m10&#34;:-43.248008728027344,&#34;m11&#34;:-105.24117279052734,&#34;m12&#34;:107.17864227294922},&#34;opacity&#34;:1.0,&#34;blendMode&#34;:&#34;NORMAL&#34;,&#34;visible&#34;:true}"/>
<g clip-path="url(#paint1_diamond_601_9_clip_path)" data-figma-skip-parse="true"><g transform="matrix(-0.0162685 -0.021624 0.0699429 -0.0526206 11.8201 32.934)"><rect x="0" y="0" width="1242.73" height="469.324" fill="url(#paint1_diamond_601_9)" opacity="1" shape-rendering="crispEdges"/><rect x="0" y="0" width="1242.73" height="469.324" transform="scale(1 -1)" fill="url(#paint1_diamond_601_9)" opacity="1" shape-rendering="crispEdges"/><rect x="0" y="0" width="1242.73" height="469.324" transform="scale(-1 1)" fill="url(#paint1_diamond_601_9)" opacity="1" shape-rendering="crispEdges"/><rect x="0" y="0" width="1242.73" height="469.324" transform="scale(-1)" fill="url(#paint1_diamond_601_9)" opacity="1" shape-rendering="crispEdges"/></g></g><path d="M5.9673 14.0577C6.10723 14.3006 6.45781 14.3006 6.59774 14.0577L8.25104 11.1873C8.31662 11.0734 8.3157 10.933 8.24862 10.82L6.86905 8.49616C6.72509 8.25367 6.89985 7.94669 7.18185 7.94669L18.2542 7.9467C18.3837 7.9467 18.5035 7.87784 18.5686 7.7659L20.3126 4.76911C20.4538 4.5266 20.2788 4.22237 19.9982 4.22237H0.929277C0.649598 4.22237 0.474537 4.52483 0.613853 4.76734L2.43852 7.94358C2.43963 7.94551 2.44168 7.9467 2.44391 7.9467C2.44613 7.9467 2.44818 7.94789 2.44929 7.94981L5.9673 14.0577Z" data-figma-gradient-fill="{&#34;type&#34;:&#34;GRADIENT_DIAMOND&#34;,&#34;stops&#34;:[{&#34;color&#34;:{&#34;r&#34;:0.73750001192092896,&#34;g&#34;:0.055312499403953552,&#34;b&#34;:0.54648756980895996,&#34;a&#34;:1.0},&#34;position&#34;:0.0},{&#34;color&#34;:{&#34;r&#34;:0.38945621252059937,&#34;g&#34;:0.041562501341104507,&#34;b&#34;:0.71249997615814209,&#34;a&#34;:1.0},&#34;position&#34;:0.52083331346511841},{&#34;color&#34;:{&#34;r&#34;:0.14392946660518646,&#34;g&#34;:0.28361001610755920,&#34;b&#34;:0.84646737575531006,&#34;a&#34;:1.0},&#34;position&#34;:0.81250},{&#34;color&#34;:{&#34;r&#34;:0.0,&#34;g&#34;:0.42549994587898254,&#34;b&#34;:0.92500001192092896,&#34;a&#34;:1.0},&#34;position&#34;:1.0},{&#34;color&#34;:{&#34;r&#34;:0.0,&#34;g&#34;:0.42549994587898254,&#34;b&#34;:0.92500001192092896,&#34;a&#34;:1.0},&#34;position&#34;:1.0}],&#34;stopsVar&#34;:[],&#34;transform&#34;:{&#34;m00&#34;:-32.537014007568359,&#34;m01&#34;:139.88572692871094,&#34;m02&#34;:-41.854251861572266,&#34;m10&#34;:-43.248008728027344,&#34;m11&#34;:-105.24117279052734,&#34;m12&#34;:107.17864227294922},&#34;opacity&#34;:1.0,&#34;blendMode&#34;:&#34;NORMAL&#34;,&#34;visible&#34;:true}"/>
<defs>
<clipPath id="paint0_diamond_601_9_clip_path"><path d="M26.1394 0.498047C26.0093 0.498047 25.8891 0.567522 25.8242 0.680254L24.8168 2.42912L23.821 4.14035C23.8198 4.14231 23.8213 4.14478 23.8235 4.14478C23.8258 4.14478 23.8272 4.14724 23.8261 4.14921L18.2894 13.7618C18.1495 14.0048 17.7989 14.0048 17.659 13.7618L16.5173 11.7798C16.4524 11.667 16.3322 11.5976 16.2021 11.5976H12.4307C12.3006 11.5976 12.1804 11.667 12.1154 11.7798L8.48994 18.0742C8.42521 18.1866 8.42521 18.325 8.48994 18.4374L10.1831 21.377C10.3231 21.62 10.6737 21.62 10.8136 21.377L12.5913 18.2906C12.596 18.2826 12.596 18.2726 12.5913 18.2646C12.5867 18.2565 12.5867 18.2466 12.5913 18.2385L13.9987 15.795C14.1386 15.5521 14.4892 15.5521 14.6291 15.795L17.659 21.0553C17.7989 21.2983 18.1495 21.2983 18.2894 21.0553L27.9246 4.32699C27.9895 4.21426 28.1097 4.14478 28.2398 4.14478H30.9117C31.1916 4.14478 31.3666 4.4476 31.2269 4.69011L18.315 27.1073C18.1751 27.3503 17.8245 27.3503 17.6846 27.1073L15.0169 22.4757C14.8769 22.2328 14.5264 22.2328 14.3864 22.4757L12.7058 25.3936C12.641 25.506 12.641 25.6444 12.7058 25.7567L17.6846 34.4008C17.8245 34.6437 18.1751 34.6437 18.315 34.4008L37.5283 1.04338C37.668 0.800865 37.493 0.498048 37.2131 0.498048L26.1394 0.498047Z"/></clipPath><clipPath id="paint1_diamond_601_9_clip_path"><path d="M5.9673 14.0577C6.10723 14.3006 6.45781 14.3006 6.59774 14.0577L8.25104 11.1873C8.31662 11.0734 8.3157 10.933 8.24862 10.82L6.86905 8.49616C6.72509 8.25367 6.89985 7.94669 7.18185 7.94669L18.2542 7.9467C18.3837 7.9467 18.5035 7.87784 18.5686 7.7659L20.3126 4.76911C20.4538 4.5266 20.2788 4.22237 19.9982 4.22237H0.929277C0.649598 4.22237 0.474537 4.52483 0.613853 4.76734L2.43852 7.94358C2.43963 7.94551 2.44168 7.9467 2.44391 7.9467C2.44613 7.9467 2.44818 7.94789 2.44929 7.94981L5.9673 14.0577Z"/></clipPath><linearGradient id="paint0_diamond_601_9" x1="0" y1="0" x2="500" y2="500" gradientUnits="userSpaceOnUse">
<stop stop-color="#BC0E8B"/>
<stop offset="0.520833" stop-color="#630BB6"/>
<stop offset="0.8125" stop-color="#2548D8"/>
<stop offset="1" stop-color="#006DEC"/>
<stop offset="1" stop-color="#006DEC"/>
</linearGradient>
<linearGradient id="paint1_diamond_601_9" x1="0" y1="0" x2="500" y2="500" gradientUnits="userSpaceOnUse">
<stop stop-color="#BC0E8B"/>
<stop offset="0.520833" stop-color="#630BB6"/>
<stop offset="0.8125" stop-color="#2548D8"/>
<stop offset="1" stop-color="#006DEC"/>
<stop offset="1" stop-color="#006DEC"/>
</linearGradient>
</defs>
</svg>
